# MagicaVoxel @ Ephtracy

# group
o 

# material
mtllib Saquief.mtl
usemtl palette

# normals
vn -1 0 0
vn 1 0 0
vn 0 0 1
vn 0 0 -1
vn 0 -1 0
vn 0 1 0

# texcoords
vt 0.0683594 0.5
vt 0.0917969 0.5
vt 0.162109 0.5
vt 0.537109 0.5
vt 0.634766 0.5
vt 0.724609 0.5
vt 0.841797 0.5
vt 0.923828 0.5
vt 0.966797 0.5
vt 0.978516 0.5

# verts
v 0.7 2.2 -1
v 0.7 2.2 -1.1
v 0.7 2.3 -1
v 0.7 2.3 -1.1
v 0.7 2.6 -0.9
v 0.7 2.6 -1
v 0.7 2.6 -1.1
v 0.7 2.6 -1.2
v 0.7 2.8 -0.9
v 0.7 2.8 -1.1
v 0.7 2.9 -0.8
v 0.7 2.9 -0.9
v 0.7 2.9 -1.1
v 0.7 3 -0.8
v 0.7 3 -1
v 0.7 3.1 -1
v 0.7 3.1 -1.2
v 0.8 2 -1
v 0.8 2 -1.1
v 0.8 2.1 -1
v 0.8 2.1 -1.1
v 0.8 2.2 -0.9
v 0.8 2.2 -1
v 0.8 2.2 -1.1
v 0.8 2.2 -1.2
v 0.8 2.3 -0.9
v 0.8 2.3 -1
v 0.8 2.3 -1.1
v 0.8 2.3 -1.2
v 0.8 2.6 -0.9
v 0.8 2.6 -1
v 0.8 2.6 -1.1
v 0.8 2.6 -1.2
v 0.8 2.6 -1.3
v 0.8 3 -0.8
v 0.8 3 -1
v 0.8 3 -1.2
v 0.8 3 -1.3
v 0.8 3.1 -0.8
v 0.8 3.1 -1
v 0.8 3.1 -1.2
v 0.8 3.2 -1
v 0.8 3.2 -1.2
v 0.9 3 -1.2
v 0.9 3 -1.3
v 0.9 3 -1.4
v 0.9 3 -1.5
v 0.9 3.1 -0.9
v 0.9 3.1 -1
v 0.9 3.2 -0.9
v 0.9 3.2 -1
v 0.9 3.2 -1.2
v 0.9 3.2 -1.3
v 0.9 3.2 -1.4
v 0.9 3.3 -1
v 0.9 3.3 -1.5
v 1.1 2 -1
v 1.1 2 -1.1
v 1.1 2.1 -1
v 1.1 2.1 -1.1
v 1.1 2.2 -1
v 1.1 2.2 -1.1
v 1.2 2.9 -0.8
v 1.2 2.9 -0.9
v 1.2 3 -0.8
v 1.2 3 -0.9
v 0.8 2.9 -0.8
v 0.8 2.9 -0.9
v 0.8 3 -0.8
v 0.8 3 -0.9
v 0.9 2 -1
v 0.9 2 -1.1
v 0.9 2.1 -1
v 0.9 2.1 -1.1
v 0.9 2.2 -1
v 0.9 2.2 -1.1
v 1.1 3 -1.2
v 1.1 3 -1.3
v 1.1 3 -1.4
v 1.1 3 -1.5
v 1.1 3.1 -0.9
v 1.1 3.1 -1
v 1.1 3.2 -0.9
v 1.1 3.2 -1
v 1.1 3.2 -1.2
v 1.1 3.2 -1.3
v 1.1 3.2 -1.4
v 1.1 3.3 -1
v 1.1 3.3 -1.5
v 1.2 2 -1
v 1.2 2 -1.1
v 1.2 2.1 -1
v 1.2 2.1 -1.1
v 1.2 2.2 -0.9
v 1.2 2.2 -1
v 1.2 2.2 -1.1
v 1.2 2.2 -1.2
v 1.2 2.3 -0.9
v 1.2 2.3 -1
v 1.2 2.3 -1.1
v 1.2 2.3 -1.2
v 1.2 2.4 -1
v 1.2 2.4 -1.1
v 1.2 2.5 -1
v 1.2 2.5 -1.1
v 1.2 2.6 -0.9
v 1.2 2.6 -1
v 1.2 2.6 -1.1
v 1.2 2.6 -1.2
v 1.2 2.6 -1.3
v 1.2 3 -0.8
v 1.2 3 -1
v 1.2 3 -1.2
v 1.2 3 -1.3
v 1.2 3.1 -0.8
v 1.2 3.1 -1
v 1.2 3.1 -1.2
v 1.2 3.2 -1
v 1.2 3.2 -1.2
v 1.3 2.2 -1
v 1.3 2.2 -1.1
v 1.3 2.3 -1
v 1.3 2.3 -1.1
v 1.3 2.4 -1
v 1.3 2.4 -1.1
v 1.3 2.5 -1
v 1.3 2.5 -1.1
v 1.3 2.6 -0.9
v 1.3 2.6 -1
v 1.3 2.6 -1.1
v 1.3 2.6 -1.2
v 1.3 2.8 -0.9
v 1.3 2.8 -1
v 1.3 2.9 -0.8
v 1.3 2.9 -0.9
v 1.3 2.9 -1
v 1.3 3 -0.8
v 1.3 3 -1
v 1.3 3.1 -1
v 1.3 3.1 -1.2
v 0.7 2.9 -0.8
v 0.7 3 -0.8
v 0.8 2.9 -0.8
v 0.8 3 -0.8
v 0.8 3.1 -0.8
v 1.2 2.9 -0.8
v 1.2 3 -0.8
v 1.2 3.1 -0.8
v 1.3 2.9 -0.8
v 1.3 3 -0.8
v 0.7 2.6 -0.9
v 0.7 2.8 -0.9
v 0.7 2.9 -0.9
v 0.8 2.2 -0.9
v 0.8 2.3 -0.9
v 0.8 2.6 -0.9
v 0.8 2.7 -0.9
v 0.8 2.8 -0.9
v 0.8 2.9 -0.9
v 0.8 3 -0.9
v 0.9 2.3 -0.9
v 0.9 2.4 -0.9
v 0.9 2.5 -0.9
v 0.9 2.7 -0.9
v 0.9 2.8 -0.9
v 0.9 2.9 -0.9
v 0.9 3.1 -0.9
v 0.9 3.2 -0.9
v 1 2.3 -0.9
v 1 2.4 -0.9
v 1 2.5 -0.9
v 1.1 2.3 -0.9
v 1.1 2.4 -0.9
v 1.1 2.5 -0.9
v 1.1 2.7 -0.9
v 1.1 2.8 -0.9
v 1.1 2.9 -0.9
v 1.1 3.1 -0.9
v 1.1 3.2 -0.9
v 1.2 2.2 -0.9
v 1.2 2.3 -0.9
v 1.2 2.6 -0.9
v 1.2 2.7 -0.9
v 1.2 2.8 -0.9
v 1.2 2.9 -0.9
v 1.2 3 -0.9
v 1.3 2.6 -0.9
v 1.3 2.8 -0.9
v 1.3 2.9 -0.9
v 0.7 2.2 -1
v 0.7 2.3 -1
v 0.7 2.6 -1
v 0.7 3 -1
v 0.7 3.1 -1
v 0.8 2 -1
v 0.8 2.1 -1
v 0.8 2.2 -1
v 0.8 2.3 -1
v 0.8 2.6 -1
v 0.8 3 -1
v 0.8 3.1 -1
v 0.8 3.2 -1
v 0.9 2 -1
v 0.9 2.1 -1
v 0.9 2.2 -1
v 0.9 3.1 -1
v 0.9 3.2 -1
v 0.9 3.3 -1
v 1.1 2 -1
v 1.1 2.1 -1
v 1.1 2.2 -1
v 1.1 3.1 -1
v 1.1 3.2 -1
v 1.1 3.3 -1
v 1.2 2 -1
v 1.2 2.1 -1
v 1.2 2.2 -1
v 1.2 2.3 -1
v 1.2 2.4 -1
v 1.2 2.5 -1
v 1.2 2.6 -1
v 1.2 3 -1
v 1.2 3.1 -1
v 1.2 3.2 -1
v 1.3 2.2 -1
v 1.3 2.3 -1
v 1.3 2.4 -1
v 1.3 2.5 -1
v 1.3 2.6 -1
v 1.3 3 -1
v 1.3 3.1 -1
v 0.9 3 -1.4
v 0.9 3.2 -1.4
v 1.1 3 -1.4
v 1.1 3.2 -1.4
v 0.7 2.2 -1.1
v 0.7 2.3 -1.1
v 0.7 2.6 -1.1
v 0.8 2 -1.1
v 0.8 2.1 -1.1
v 0.8 2.2 -1.1
v 0.8 2.3 -1.1
v 0.8 2.6 -1.1
v 0.9 2 -1.1
v 0.9 2.1 -1.1
v 0.9 2.2 -1.1
v 1.1 2 -1.1
v 1.1 2.1 -1.1
v 1.1 2.2 -1.1
v 1.2 2 -1.1
v 1.2 2.1 -1.1
v 1.2 2.2 -1.1
v 1.2 2.3 -1.1
v 1.2 2.4 -1.1
v 1.2 2.5 -1.1
v 1.2 2.6 -1.1
v 1.3 2.2 -1.1
v 1.3 2.3 -1.1
v 1.3 2.4 -1.1
v 1.3 2.5 -1.1
v 1.3 2.6 -1.1
v 0.7 2.6 -1.2
v 0.7 3.1 -1.2
v 0.8 2.2 -1.2
v 0.8 2.3 -1.2
v 0.8 2.6 -1.2
v 0.8 3 -1.2
v 0.8 3.1 -1.2
v 0.8 3.2 -1.2
v 0.9 3 -1.2
v 0.9 3.2 -1.2
v 1.1 3 -1.2
v 1.1 3.2 -1.2
v 1.2 2.2 -1.2
v 1.2 2.3 -1.2
v 1.2 2.6 -1.2
v 1.2 3 -1.2
v 1.2 3.1 -1.2
v 1.2 3.2 -1.2
v 1.3 2.6 -1.2
v 1.3 3.1 -1.2
v 0.8 2.6 -1.3
v 0.8 3 -1.3
v 0.9 3 -1.3
v 0.9 3.2 -1.3
v 1.1 3 -1.3
v 1.1 3.2 -1.3
v 1.2 2.6 -1.3
v 1.2 3 -1.3
v 0.9 3 -1.5
v 0.9 3.3 -1.5
v 1.1 3 -1.5
v 1.1 3.3 -1.5
v 0.8 2 -1
v 0.9 2 -1
v 1.1 2 -1
v 1.2 2 -1
v 0.8 2 -1.1
v 0.9 2 -1.1
v 1.1 2 -1.1
v 1.2 2 -1.1
v 0.8 2.2 -0.9
v 1.2 2.2 -0.9
v 0.7 2.2 -1
v 0.8 2.2 -1
v 0.9 2.2 -1
v 1.1 2.2 -1
v 1.2 2.2 -1
v 1.3 2.2 -1
v 0.7 2.2 -1.1
v 0.8 2.2 -1.1
v 0.9 2.2 -1.1
v 1.1 2.2 -1.1
v 1.2 2.2 -1.1
v 1.3 2.2 -1.1
v 0.8 2.2 -1.2
v 1.2 2.2 -1.2
v 0.7 2.6 -0.9
v 0.8 2.6 -0.9
v 1.2 2.6 -0.9
v 1.3 2.6 -0.9
v 0.7 2.6 -1
v 0.8 2.6 -1
v 1.2 2.6 -1
v 1.3 2.6 -1
v 0.7 2.6 -1.1
v 0.8 2.6 -1.1
v 1.2 2.6 -1.1
v 1.3 2.6 -1.1
v 0.7 2.6 -1.2
v 0.8 2.6 -1.2
v 1.2 2.6 -1.2
v 1.3 2.6 -1.2
v 0.8 2.6 -1.3
v 1.2 2.6 -1.3
v 0.7 2.9 -0.8
v 0.8 2.9 -0.8
v 1.2 2.9 -0.8
v 1.3 2.9 -0.8
v 0.7 2.9 -0.9
v 0.8 2.9 -0.9
v 1.2 2.9 -0.9
v 1.3 2.9 -0.9
v 0.8 3 -0.8
v 1.2 3 -0.8
v 0.8 3 -0.9
v 1.2 3 -0.9
v 0.9 3 -1.4
v 1.1 3 -1.4
v 0.9 3 -1.5
v 1.1 3 -1.5
v 0.9 3.2 -1.3
v 1.1 3.2 -1.3
v 0.9 3.2 -1.4
v 1.1 3.2 -1.4
v 0.7 3 -0.8
v 0.8 3 -0.8
v 1.2 3 -0.8
v 1.3 3 -0.8
v 0.7 3 -1
v 0.8 3 -1
v 1.2 3 -1
v 1.3 3 -1
v 0.8 3 -1.2
v 0.9 3 -1.2
v 1.1 3 -1.2
v 1.2 3 -1.2
v 0.8 3 -1.3
v 0.9 3 -1.3
v 1.1 3 -1.3
v 1.2 3 -1.3
v 0.8 3.1 -0.8
v 1.2 3.1 -0.8
v 0.9 3.1 -0.9
v 1.1 3.1 -0.9
v 0.7 3.1 -1
v 0.8 3.1 -1
v 0.9 3.1 -1
v 1.1 3.1 -1
v 1.2 3.1 -1
v 1.3 3.1 -1
v 0.7 3.1 -1.2
v 0.8 3.1 -1.2
v 1.2 3.1 -1.2
v 1.3 3.1 -1.2
v 0.9 3.2 -0.9
v 1.1 3.2 -0.9
v 0.8 3.2 -1
v 0.9 3.2 -1
v 1.1 3.2 -1
v 1.2 3.2 -1
v 0.8 3.2 -1.2
v 0.9 3.2 -1.2
v 1.1 3.2 -1.2
v 1.2 3.2 -1.2
v 0.9 3.3 -1
v 1.1 3.3 -1
v 0.9 3.3 -1.5
v 1.1 3.3 -1.5

# faces
f 3/1/1 2/1/1 1/1/1
f 4/1/1 2/1/1 3/1/1
f 6/9/1 4/9/1 3/9/1
f 7/9/1 4/9/1 6/9/1
f 9/4/1 7/4/1 6/4/1
f 9/4/1 8/4/1 7/4/1
f 9/4/1 6/4/1 5/4/1
f 10/4/1 8/4/1 9/4/1
f 12/9/1 10/9/1 9/9/1
f 13/4/1 8/4/1 10/4/1
f 13/9/1 10/9/1 12/9/1
f 14/4/1 12/4/1 11/4/1
f 14/4/1 13/4/1 12/4/1
f 15/4/1 13/4/1 14/4/1
f 16/4/1 13/4/1 15/4/1
f 17/4/1 8/4/1 13/4/1
f 17/4/1 13/4/1 16/4/1
f 20/1/1 19/1/1 18/1/1
f 21/1/1 19/1/1 20/1/1
f 23/9/1 21/9/1 20/9/1
f 24/9/1 21/9/1 23/9/1
f 26/9/1 23/9/1 22/9/1
f 27/9/1 23/9/1 26/9/1
f 28/9/1 25/9/1 24/9/1
f 29/9/1 25/9/1 28/9/1
f 30/4/1 27/4/1 26/4/1
f 31/4/1 27/4/1 30/4/1
f 32/4/1 29/4/1 28/4/1
f 33/4/1 29/4/1 32/4/1
f 37/4/1 34/4/1 33/4/1
f 38/4/1 34/4/1 37/4/1
f 39/4/1 36/4/1 35/4/1
f 40/4/1 36/4/1 39/4/1
f 42/4/1 41/4/1 40/4/1
f 43/4/1 41/4/1 42/4/1
f 50/4/1 49/4/1 48/4/1
f 51/4/1 49/4/1 50/4/1
f 52/4/1 45/4/1 44/4/1
f 53/4/1 45/4/1 52/4/1
f 54/4/1 47/4/1 46/4/1
f 55/4/1 54/4/1 53/4/1
f 55/4/1 53/4/1 52/4/1
f 55/4/1 52/4/1 51/4/1
f 56/4/1 47/4/1 54/4/1
f 56/4/1 54/4/1 55/4/1
f 59/1/1 58/1/1 57/1/1
f 60/1/1 58/1/1 59/1/1
f 61/9/1 60/9/1 59/9/1
f 62/9/1 60/9/1 61/9/1
f 65/4/1 64/4/1 63/4/1
f 66/4/1 64/4/1 65/4/1
f 67/4/2 68/4/2 69/4/2
f 69/4/2 68/4/2 70/4/2
f 71/1/2 72/1/2 73/1/2
f 73/1/2 72/1/2 74/1/2
f 73/9/2 74/9/2 75/9/2
f 75/9/2 74/9/2 76/9/2
f 81/4/2 82/4/2 83/4/2
f 83/4/2 82/4/2 84/4/2
f 77/4/2 78/4/2 85/4/2
f 85/4/2 78/4/2 86/4/2
f 79/4/2 80/4/2 87/4/2
f 86/4/2 87/4/2 88/4/2
f 85/4/2 86/4/2 88/4/2
f 84/4/2 85/4/2 88/4/2
f 87/4/2 80/4/2 89/4/2
f 88/4/2 87/4/2 89/4/2
f 90/1/2 91/1/2 92/1/2
f 92/1/2 91/1/2 93/1/2
f 92/9/2 93/9/2 95/9/2
f 95/9/2 93/9/2 96/9/2
f 94/9/2 95/9/2 98/9/2
f 98/9/2 95/9/2 99/9/2
f 96/9/2 97/9/2 100/9/2
f 100/9/2 97/9/2 101/9/2
f 98/4/2 99/4/2 102/4/2
f 100/4/2 101/4/2 103/4/2
f 98/4/2 102/4/2 104/4/2
f 103/4/2 101/4/2 105/4/2
f 98/4/2 104/4/2 106/4/2
f 106/4/2 104/4/2 107/4/2
f 105/4/2 101/4/2 108/4/2
f 108/4/2 101/4/2 109/4/2
f 109/4/2 110/4/2 113/4/2
f 113/4/2 110/4/2 114/4/2
f 111/4/2 112/4/2 115/4/2
f 115/4/2 112/4/2 116/4/2
f 116/4/2 117/4/2 118/4/2
f 118/4/2 117/4/2 119/4/2
f 120/1/2 121/1/2 122/1/2
f 122/1/2 121/1/2 123/1/2
f 122/9/2 123/9/2 124/9/2
f 124/9/2 123/9/2 125/9/2
f 124/4/2 125/4/2 126/4/2
f 126/4/2 125/4/2 127/4/2
f 126/9/2 127/9/2 129/9/2
f 129/9/2 127/9/2 130/9/2
f 129/4/2 130/4/2 132/4/2
f 130/4/2 131/4/2 132/4/2
f 128/4/2 129/4/2 132/4/2
f 132/4/2 131/4/2 133/4/2
f 132/9/2 133/9/2 135/9/2
f 133/4/2 131/4/2 136/4/2
f 135/9/2 133/9/2 136/9/2
f 134/4/2 135/4/2 137/4/2
f 135/4/2 136/4/2 137/4/2
f 136/4/2 131/4/2 138/4/2
f 137/4/2 136/4/2 138/4/2
f 138/4/2 131/4/2 139/4/2
f 139/4/2 131/4/2 140/4/2
f 143/4/3 142/4/3 141/4/3
f 144/4/3 142/4/3 143/4/3
f 147/4/3 145/4/3 144/4/3
f 148/4/3 145/4/3 147/4/3
f 149/4/3 147/4/3 146/4/3
f 150/4/3 147/4/3 149/4/3
f 156/4/3 152/4/3 151/4/3
f 157/4/3 152/4/3 156/4/3
f 158/9/3 153/9/3 152/9/3
f 158/4/3 152/4/3 157/4/3
f 159/9/3 153/9/3 158/9/3
f 161/9/3 155/9/3 154/9/3
f 161/4/3 157/4/3 156/4/3
f 161/4/3 156/4/3 155/4/3
f 162/4/3 157/4/3 161/4/3
f 163/4/3 157/4/3 162/4/3
f 164/9/3 158/9/3 157/9/3
f 164/4/3 157/4/3 163/4/3
f 165/7/3 159/7/3 158/7/3
f 165/9/3 158/9/3 164/9/3
f 166/9/3 160/9/3 159/9/3
f 166/7/3 159/7/3 165/7/3
f 169/9/3 161/9/3 154/9/3
f 169/6/3 162/6/3 161/6/3
f 170/2/3 163/2/3 162/2/3
f 170/6/3 162/6/3 169/6/3
f 171/4/3 164/4/3 163/4/3
f 171/2/3 163/2/3 170/2/3
f 172/3/3 170/3/3 169/3/3
f 172/9/3 169/9/3 154/9/3
f 173/8/3 171/8/3 170/8/3
f 173/3/3 170/3/3 172/3/3
f 174/4/3 164/4/3 171/4/3
f 174/8/3 171/8/3 173/8/3
f 175/10/3 165/10/3 164/10/3
f 175/4/3 164/4/3 174/4/3
f 176/9/3 166/9/3 165/9/3
f 176/10/3 165/10/3 175/10/3
f 177/9/3 160/9/3 166/9/3
f 177/9/3 166/9/3 176/9/3
f 178/4/3 168/4/3 167/4/3
f 179/4/3 168/4/3 178/4/3
f 180/9/3 172/9/3 154/9/3
f 181/4/3 174/4/3 173/4/3
f 181/9/3 172/9/3 180/9/3
f 181/4/3 173/4/3 172/4/3
f 181/4/3 175/4/3 174/4/3
f 182/4/3 175/4/3 181/4/3
f 183/9/3 176/9/3 175/9/3
f 183/4/3 175/4/3 182/4/3
f 184/7/3 177/7/3 176/7/3
f 184/9/3 176/9/3 183/9/3
f 185/9/3 160/9/3 177/9/3
f 185/7/3 177/7/3 184/7/3
f 186/9/3 160/9/3 185/9/3
f 187/4/3 184/4/3 183/4/3
f 187/4/3 183/4/3 182/4/3
f 188/9/3 185/9/3 184/9/3
f 188/4/3 184/4/3 187/4/3
f 189/9/3 185/9/3 188/9/3
f 197/1/3 191/1/3 190/1/3
f 198/9/3 192/9/3 191/9/3
f 198/1/3 191/1/3 197/1/3
f 199/9/3 192/9/3 198/9/3
f 200/4/3 194/4/3 193/4/3
f 201/4/3 194/4/3 200/4/3
f 203/1/3 196/1/3 195/1/3
f 204/9/3 197/9/3 196/9/3
f 204/1/3 196/1/3 203/1/3
f 205/9/3 197/9/3 204/9/3
f 206/4/3 202/4/3 201/4/3
f 207/4/3 202/4/3 206/4/3
f 213/4/3 208/4/3 207/4/3
f 214/4/3 208/4/3 213/4/3
f 215/1/3 210/1/3 209/1/3
f 216/9/3 211/9/3 210/9/3
f 216/1/3 210/1/3 215/1/3
f 217/9/3 211/9/3 216/9/3
f 223/4/3 213/4/3 212/4/3
f 224/4/3 213/4/3 223/4/3
f 225/1/3 218/1/3 217/1/3
f 226/9/3 219/9/3 218/9/3
f 226/1/3 218/1/3 225/1/3
f 227/4/3 220/4/3 219/4/3
f 227/9/3 219/9/3 226/9/3
f 228/9/3 221/9/3 220/9/3
f 228/4/3 220/4/3 227/4/3
f 229/9/3 221/9/3 228/9/3
f 230/4/3 223/4/3 222/4/3
f 231/4/3 223/4/3 230/4/3
f 234/4/3 233/4/3 232/4/3
f 235/4/3 233/4/3 234/4/3
f 236/1/4 237/1/4 241/1/4
f 237/9/4 238/9/4 242/9/4
f 241/1/4 237/1/4 242/1/4
f 242/9/4 238/9/4 243/9/4
f 239/1/4 240/1/4 244/1/4
f 240/9/4 241/9/4 245/9/4
f 244/1/4 240/1/4 245/1/4
f 245/9/4 241/9/4 246/9/4
f 247/1/4 248/1/4 250/1/4
f 248/9/4 249/9/4 251/9/4
f 250/1/4 248/1/4 251/1/4
f 251/9/4 249/9/4 252/9/4
f 252/1/4 253/1/4 257/1/4
f 253/9/4 254/9/4 258/9/4
f 257/1/4 253/1/4 258/1/4
f 254/4/4 255/4/4 259/4/4
f 258/9/4 254/9/4 259/9/4
f 255/9/4 256/9/4 260/9/4
f 259/4/4 255/4/4 260/4/4
f 260/9/4 256/9/4 261/9/4
f 262/4/4 263/4/4 266/4/4
f 266/4/4 263/4/4 267/4/4
f 267/4/4 263/4/4 268/4/4
f 268/4/4 269/4/4 270/4/4
f 267/4/4 268/4/4 270/4/4
f 270/4/4 269/4/4 271/4/4
f 264/9/4 265/9/4 274/9/4
f 265/4/4 266/4/4 275/4/4
f 274/9/4 265/9/4 275/9/4
f 275/4/4 266/4/4 276/4/4
f 272/4/4 273/4/4 277/4/4
f 277/4/4 273/4/4 278/4/4
f 278/4/4 273/4/4 279/4/4
f 277/4/4 278/4/4 280/4/4
f 276/4/4 277/4/4 280/4/4
f 280/4/4 278/4/4 281/4/4
f 282/4/4 283/4/4 284/4/4
f 282/4/4 284/4/4 286/4/4
f 284/4/4 285/4/4 286/4/4
f 286/4/4 285/4/4 287/4/4
f 282/4/4 286/4/4 288/4/4
f 288/4/4 286/4/4 289/4/4
f 290/4/4 291/4/4 292/4/4
f 292/4/4 291/4/4 293/4/4
f 298/1/5 295/1/5 294/1/5
f 299/1/5 295/1/5 298/1/5
f 300/1/5 297/1/5 296/1/5
f 301/1/5 297/1/5 300/1/5
f 305/9/5 303/9/5 302/9/5
f 306/9/5 303/9/5 305/9/5
f 307/9/5 303/9/5 306/9/5
f 308/9/5 303/9/5 307/9/5
f 310/1/5 305/1/5 304/1/5
f 311/1/5 305/1/5 310/1/5
f 312/9/5 307/9/5 306/9/5
f 313/9/5 307/9/5 312/9/5
f 314/1/5 309/1/5 308/1/5
f 315/1/5 309/1/5 314/1/5
f 316/9/5 313/9/5 312/9/5
f 316/9/5 314/9/5 313/9/5
f 316/9/5 312/9/5 311/9/5
f 317/9/5 314/9/5 316/9/5
f 322/4/5 319/4/5 318/4/5
f 323/4/5 319/4/5 322/4/5
f 324/4/5 321/4/5 320/4/5
f 325/4/5 321/4/5 324/4/5
f 330/4/5 327/4/5 326/4/5
f 331/4/5 327/4/5 330/4/5
f 332/4/5 329/4/5 328/4/5
f 333/4/5 329/4/5 332/4/5
f 334/4/5 332/4/5 331/4/5
f 335/4/5 332/4/5 334/4/5
f 340/4/5 337/4/5 336/4/5
f 341/4/5 337/4/5 340/4/5
f 342/4/5 339/4/5 338/4/5
f 343/4/5 339/4/5 342/4/5
f 346/4/5 345/4/5 344/4/5
f 347/4/5 345/4/5 346/4/5
f 350/4/5 349/4/5 348/4/5
f 351/4/5 349/4/5 350/4/5
f 354/4/5 353/4/5 352/4/5
f 355/4/5 353/4/5 354/4/5
f 356/4/6 357/4/6 360/4/6
f 360/4/6 357/4/6 361/4/6
f 358/4/6 359/4/6 362/4/6
f 362/4/6 359/4/6 363/4/6
f 364/4/6 365/4/6 368/4/6
f 368/4/6 365/4/6 369/4/6
f 366/4/6 367/4/6 370/4/6
f 370/4/6 367/4/6 371/4/6
f 372/4/6 373/4/6 374/4/6
f 374/4/6 373/4/6 375/4/6
f 372/4/6 374/4/6 377/4/6
f 377/4/6 374/4/6 378/4/6
f 375/4/6 373/4/6 379/4/6
f 379/4/6 373/4/6 380/4/6
f 376/4/6 377/4/6 382/4/6
f 382/4/6 377/4/6 383/4/6
f 380/4/6 381/4/6 384/4/6
f 384/4/6 381/4/6 385/4/6
f 386/4/6 387/4/6 389/4/6
f 389/4/6 387/4/6 390/4/6
f 388/4/6 389/4/6 392/4/6
f 392/4/6 389/4/6 393/4/6
f 390/4/6 391/4/6 394/4/6
f 394/4/6 391/4/6 395/4/6
f 396/4/6 397/4/6 398/4/6
f 398/4/6 397/4/6 399/4/6
