# MagicaVoxel @ Ephtracy

# group
o 

# material
mtllib Saquief2.mtl
usemtl palette

# normals
vn -1 0 0
vn 1 0 0
vn 0 0 1
vn 0 0 -1
vn 0 -1 0
vn 0 1 0

# texcoords
vt 0.0683594 0.5
vt 0.0917969 0.5
vt 0.162109 0.5
vt 0.537109 0.5
vt 0.634766 0.5
vt 0.724609 0.5
vt 0.841797 0.5
vt 0.923828 0.5
vt 0.966797 0.5
vt 0.978516 0.5

# verts
v 0.7 2.5 -0.7
v 0.7 2.5 -0.8
v 0.7 2.5 -0.9
v 0.7 2.5 -1
v 0.7 2.5 -1.1
v 0.7 2.6 -0.7
v 0.7 2.6 -0.8
v 0.7 2.6 -0.9
v 0.7 2.6 -1
v 0.7 2.6 -1.1
v 0.7 2.6 -1.2
v 0.7 2.8 -0.9
v 0.7 2.8 -1.1
v 0.7 2.9 -0.8
v 0.7 2.9 -0.9
v 0.7 2.9 -1.1
v 0.7 3 -0.8
v 0.7 3 -1
v 0.7 3.1 -1
v 0.7 3.1 -1.2
v 0.8 2 -1
v 0.8 2 -1.1
v 0.8 2.1 -1
v 0.8 2.1 -1.1
v 0.8 2.2 -0.9
v 0.8 2.2 -1
v 0.8 2.2 -1.1
v 0.8 2.2 -1.2
v 0.8 2.3 -0.9
v 0.8 2.3 -1.2
v 0.8 2.5 -0.9
v 0.8 2.5 -1
v 0.8 2.5 -1.1
v 0.8 2.6 -1.1
v 0.8 2.6 -1.2
v 0.8 2.6 -1.3
v 0.8 3 -0.8
v 0.8 3 -1
v 0.8 3 -1.2
v 0.8 3 -1.3
v 0.8 3.1 -0.8
v 0.8 3.1 -1
v 0.8 3.1 -1.2
v 0.8 3.2 -1
v 0.8 3.2 -1.2
v 0.9 3 -1.2
v 0.9 3 -1.3
v 0.9 3 -1.4
v 0.9 3 -1.5
v 0.9 3.1 -0.9
v 0.9 3.1 -1
v 0.9 3.2 -0.9
v 0.9 3.2 -1
v 0.9 3.2 -1.2
v 0.9 3.2 -1.3
v 0.9 3.2 -1.4
v 0.9 3.3 -1
v 0.9 3.3 -1.5
v 1.1 2 -1
v 1.1 2 -1.1
v 1.1 2.1 -1
v 1.1 2.1 -1.1
v 1.1 2.2 -1
v 1.1 2.2 -1.1
v 1.2 2.5 -0.7
v 1.2 2.5 -0.8
v 1.2 2.5 -0.9
v 1.2 2.6 -0.7
v 1.2 2.6 -0.8
v 1.2 2.6 -0.9
v 1.2 2.9 -0.8
v 1.2 2.9 -0.9
v 1.2 3 -0.8
v 1.2 3 -0.9
v 0.8 2.5 -0.7
v 0.8 2.5 -0.8
v 0.8 2.5 -0.9
v 0.8 2.6 -0.7
v 0.8 2.6 -0.8
v 0.8 2.6 -0.9
v 0.8 2.9 -0.8
v 0.8 2.9 -0.9
v 0.8 3 -0.8
v 0.8 3 -0.9
v 0.9 2 -1
v 0.9 2 -1.1
v 0.9 2.1 -1
v 0.9 2.1 -1.1
v 0.9 2.2 -1
v 0.9 2.2 -1.1
v 1.1 3 -1.2
v 1.1 3 -1.3
v 1.1 3 -1.4
v 1.1 3 -1.5
v 1.1 3.1 -0.9
v 1.1 3.1 -1
v 1.1 3.2 -0.9
v 1.1 3.2 -1
v 1.1 3.2 -1.2
v 1.1 3.2 -1.3
v 1.1 3.2 -1.4
v 1.1 3.3 -1
v 1.1 3.3 -1.5
v 1.2 2 -1
v 1.2 2 -1.1
v 1.2 2.1 -1
v 1.2 2.1 -1.1
v 1.2 2.2 -0.9
v 1.2 2.2 -1
v 1.2 2.2 -1.1
v 1.2 2.2 -1.2
v 1.2 2.3 -0.9
v 1.2 2.3 -1.2
v 1.2 2.5 -0.9
v 1.2 2.5 -1
v 1.2 2.5 -1.1
v 1.2 2.6 -1.1
v 1.2 2.6 -1.2
v 1.2 2.6 -1.3
v 1.2 3 -0.8
v 1.2 3 -1
v 1.2 3 -1.2
v 1.2 3 -1.3
v 1.2 3.1 -0.8
v 1.2 3.1 -1
v 1.2 3.1 -1.2
v 1.2 3.2 -1
v 1.2 3.2 -1.2
v 1.3 2.5 -0.7
v 1.3 2.5 -0.8
v 1.3 2.5 -0.9
v 1.3 2.5 -1
v 1.3 2.5 -1.1
v 1.3 2.6 -0.7
v 1.3 2.6 -0.8
v 1.3 2.6 -0.9
v 1.3 2.6 -1
v 1.3 2.6 -1.1
v 1.3 2.6 -1.2
v 1.3 2.8 -0.9
v 1.3 2.8 -1
v 1.3 2.9 -0.8
v 1.3 2.9 -0.9
v 1.3 2.9 -1
v 1.3 3 -0.8
v 1.3 3 -1
v 1.3 3.1 -1
v 1.3 3.1 -1.2
v 0.7 2.5 -0.7
v 0.7 2.6 -0.7
v 0.8 2.5 -0.7
v 0.8 2.6 -0.7
v 1.2 2.5 -0.7
v 1.2 2.6 -0.7
v 1.3 2.5 -0.7
v 1.3 2.6 -0.7
v 0.7 2.9 -0.8
v 0.7 3 -0.8
v 0.8 2.9 -0.8
v 0.8 3 -0.8
v 0.8 3.1 -0.8
v 1.2 2.9 -0.8
v 1.2 3 -0.8
v 1.2 3.1 -0.8
v 1.3 2.9 -0.8
v 1.3 3 -0.8
v 0.7 2.6 -0.9
v 0.7 2.8 -0.9
v 0.7 2.9 -0.9
v 0.8 2.2 -0.9
v 0.8 2.3 -0.9
v 0.8 2.5 -0.9
v 0.8 2.6 -0.9
v 0.8 2.7 -0.9
v 0.8 2.8 -0.9
v 0.8 2.9 -0.9
v 0.8 3 -0.9
v 0.9 2.3 -0.9
v 0.9 2.4 -0.9
v 0.9 2.5 -0.9
v 0.9 2.7 -0.9
v 0.9 2.8 -0.9
v 0.9 2.9 -0.9
v 0.9 3.1 -0.9
v 0.9 3.2 -0.9
v 1 2.3 -0.9
v 1 2.4 -0.9
v 1 2.5 -0.9
v 1.1 2.3 -0.9
v 1.1 2.4 -0.9
v 1.1 2.5 -0.9
v 1.1 2.7 -0.9
v 1.1 2.8 -0.9
v 1.1 2.9 -0.9
v 1.1 3.1 -0.9
v 1.1 3.2 -0.9
v 1.2 2.2 -0.9
v 1.2 2.3 -0.9
v 1.2 2.5 -0.9
v 1.2 2.6 -0.9
v 1.2 2.7 -0.9
v 1.2 2.8 -0.9
v 1.2 2.9 -0.9
v 1.2 3 -0.9
v 1.3 2.6 -0.9
v 1.3 2.8 -0.9
v 1.3 2.9 -0.9
v 0.7 3 -1
v 0.7 3.1 -1
v 0.8 2 -1
v 0.8 2.1 -1
v 0.8 2.2 -1
v 0.8 3 -1
v 0.8 3.1 -1
v 0.8 3.2 -1
v 0.9 2 -1
v 0.9 2.1 -1
v 0.9 2.2 -1
v 0.9 3.1 -1
v 0.9 3.2 -1
v 0.9 3.3 -1
v 1.1 2 -1
v 1.1 2.1 -1
v 1.1 2.2 -1
v 1.1 3.1 -1
v 1.1 3.2 -1
v 1.1 3.3 -1
v 1.2 2 -1
v 1.2 2.1 -1
v 1.2 2.2 -1
v 1.2 3 -1
v 1.2 3.1 -1
v 1.2 3.2 -1
v 1.3 3 -1
v 1.3 3.1 -1
v 0.9 3 -1.4
v 0.9 3.2 -1.4
v 1.1 3 -1.4
v 1.1 3.2 -1.4
v 0.7 2.5 -1.1
v 0.7 2.6 -1.1
v 0.8 2 -1.1
v 0.8 2.1 -1.1
v 0.8 2.2 -1.1
v 0.8 2.5 -1.1
v 0.8 2.6 -1.1
v 0.9 2 -1.1
v 0.9 2.1 -1.1
v 0.9 2.2 -1.1
v 1.1 2 -1.1
v 1.1 2.1 -1.1
v 1.1 2.2 -1.1
v 1.2 2 -1.1
v 1.2 2.1 -1.1
v 1.2 2.2 -1.1
v 1.2 2.5 -1.1
v 1.2 2.6 -1.1
v 1.3 2.5 -1.1
v 1.3 2.6 -1.1
v 0.7 2.6 -1.2
v 0.7 3.1 -1.2
v 0.8 2.2 -1.2
v 0.8 2.3 -1.2
v 0.8 2.6 -1.2
v 0.8 3 -1.2
v 0.8 3.1 -1.2
v 0.8 3.2 -1.2
v 0.9 3 -1.2
v 0.9 3.2 -1.2
v 1.1 3 -1.2
v 1.1 3.2 -1.2
v 1.2 2.2 -1.2
v 1.2 2.3 -1.2
v 1.2 2.6 -1.2
v 1.2 3 -1.2
v 1.2 3.1 -1.2
v 1.2 3.2 -1.2
v 1.3 2.6 -1.2
v 1.3 3.1 -1.2
v 0.8 2.6 -1.3
v 0.8 3 -1.3
v 0.9 3 -1.3
v 0.9 3.2 -1.3
v 1.1 3 -1.3
v 1.1 3.2 -1.3
v 1.2 2.6 -1.3
v 1.2 3 -1.3
v 0.9 3 -1.5
v 0.9 3.3 -1.5
v 1.1 3 -1.5
v 1.1 3.3 -1.5
v 0.8 2 -1
v 0.9 2 -1
v 1.1 2 -1
v 1.2 2 -1
v 0.8 2 -1.1
v 0.9 2 -1.1
v 1.1 2 -1.1
v 1.2 2 -1.1
v 0.8 2.2 -0.9
v 1.2 2.2 -0.9
v 0.8 2.2 -1
v 0.9 2.2 -1
v 1.1 2.2 -1
v 1.2 2.2 -1
v 0.8 2.2 -1.1
v 0.9 2.2 -1.1
v 1.1 2.2 -1.1
v 1.2 2.2 -1.1
v 0.8 2.2 -1.2
v 1.2 2.2 -1.2
v 0.7 2.5 -0.7
v 0.8 2.5 -0.7
v 1.2 2.5 -0.7
v 1.3 2.5 -0.7
v 0.7 2.5 -0.8
v 0.8 2.5 -0.8
v 1.2 2.5 -0.8
v 1.3 2.5 -0.8
v 0.7 2.5 -0.9
v 0.8 2.5 -0.9
v 1.2 2.5 -0.9
v 1.3 2.5 -0.9
v 0.7 2.5 -1
v 0.8 2.5 -1
v 1.2 2.5 -1
v 1.3 2.5 -1
v 0.7 2.5 -1.1
v 0.8 2.5 -1.1
v 1.2 2.5 -1.1
v 1.3 2.5 -1.1
v 0.7 2.6 -1.1
v 0.8 2.6 -1.1
v 1.2 2.6 -1.1
v 1.3 2.6 -1.1
v 0.7 2.6 -1.2
v 0.8 2.6 -1.2
v 1.2 2.6 -1.2
v 1.3 2.6 -1.2
v 0.8 2.6 -1.3
v 1.2 2.6 -1.3
v 0.7 2.9 -0.8
v 0.8 2.9 -0.8
v 1.2 2.9 -0.8
v 1.3 2.9 -0.8
v 0.7 2.9 -0.9
v 0.8 2.9 -0.9
v 1.2 2.9 -0.9
v 1.3 2.9 -0.9
v 0.8 3 -0.8
v 1.2 3 -0.8
v 0.8 3 -0.9
v 1.2 3 -0.9
v 0.9 3 -1.4
v 1.1 3 -1.4
v 0.9 3 -1.5
v 1.1 3 -1.5
v 0.9 3.2 -1.3
v 1.1 3.2 -1.3
v 0.9 3.2 -1.4
v 1.1 3.2 -1.4
v 0.7 2.6 -0.7
v 0.8 2.6 -0.7
v 1.2 2.6 -0.7
v 1.3 2.6 -0.7
v 0.7 2.6 -0.8
v 0.8 2.6 -0.8
v 1.2 2.6 -0.8
v 1.3 2.6 -0.8
v 0.7 2.6 -0.9
v 0.8 2.6 -0.9
v 1.2 2.6 -0.9
v 1.3 2.6 -0.9
v 0.7 3 -0.8
v 0.8 3 -0.8
v 1.2 3 -0.8
v 1.3 3 -0.8
v 0.7 3 -1
v 0.8 3 -1
v 1.2 3 -1
v 1.3 3 -1
v 0.8 3 -1.2
v 0.9 3 -1.2
v 1.1 3 -1.2
v 1.2 3 -1.2
v 0.8 3 -1.3
v 0.9 3 -1.3
v 1.1 3 -1.3
v 1.2 3 -1.3
v 0.8 3.1 -0.8
v 1.2 3.1 -0.8
v 0.9 3.1 -0.9
v 1.1 3.1 -0.9
v 0.7 3.1 -1
v 0.8 3.1 -1
v 0.9 3.1 -1
v 1.1 3.1 -1
v 1.2 3.1 -1
v 1.3 3.1 -1
v 0.7 3.1 -1.2
v 0.8 3.1 -1.2
v 1.2 3.1 -1.2
v 1.3 3.1 -1.2
v 0.9 3.2 -0.9
v 1.1 3.2 -0.9
v 0.8 3.2 -1
v 0.9 3.2 -1
v 1.1 3.2 -1
v 1.2 3.2 -1
v 0.8 3.2 -1.2
v 0.9 3.2 -1.2
v 1.1 3.2 -1.2
v 1.2 3.2 -1.2
v 0.9 3.3 -1
v 1.1 3.3 -1
v 0.9 3.3 -1.5
v 1.1 3.3 -1.5

# faces
f 6/1/1 2/1/1 1/1/1
f 7/9/1 3/9/1 2/9/1
f 7/1/1 2/1/1 6/1/1
f 8/4/1 4/4/1 3/4/1
f 8/9/1 3/9/1 7/9/1
f 9/9/1 5/9/1 4/9/1
f 9/4/1 4/4/1 8/4/1
f 10/9/1 5/9/1 9/9/1
f 12/4/1 11/4/1 10/4/1
f 12/4/1 10/4/1 9/4/1
f 12/4/1 9/4/1 8/4/1
f 13/4/1 11/4/1 12/4/1
f 15/9/1 13/9/1 12/9/1
f 16/4/1 11/4/1 13/4/1
f 16/9/1 13/9/1 15/9/1
f 17/4/1 15/4/1 14/4/1
f 17/4/1 16/4/1 15/4/1
f 18/4/1 16/4/1 17/4/1
f 19/4/1 16/4/1 18/4/1
f 20/4/1 11/4/1 16/4/1
f 20/4/1 16/4/1 19/4/1
f 23/1/1 22/1/1 21/1/1
f 24/1/1 22/1/1 23/1/1
f 26/9/1 24/9/1 23/9/1
f 27/9/1 24/9/1 26/9/1
f 29/9/1 27/9/1 26/9/1
f 29/9/1 28/9/1 27/9/1
f 29/9/1 26/9/1 25/9/1
f 30/9/1 28/9/1 29/9/1
f 31/4/1 30/4/1 29/4/1
f 32/4/1 30/4/1 31/4/1
f 33/4/1 30/4/1 32/4/1
f 34/4/1 30/4/1 33/4/1
f 35/4/1 30/4/1 34/4/1
f 39/4/1 36/4/1 35/4/1
f 40/4/1 36/4/1 39/4/1
f 41/4/1 38/4/1 37/4/1
f 42/4/1 38/4/1 41/4/1
f 44/4/1 43/4/1 42/4/1
f 45/4/1 43/4/1 44/4/1
f 52/4/1 51/4/1 50/4/1
f 53/4/1 51/4/1 52/4/1
f 54/4/1 47/4/1 46/4/1
f 55/4/1 47/4/1 54/4/1
f 56/4/1 49/4/1 48/4/1
f 57/4/1 56/4/1 55/4/1
f 57/4/1 55/4/1 54/4/1
f 57/4/1 54/4/1 53/4/1
f 58/4/1 49/4/1 56/4/1
f 58/4/1 56/4/1 57/4/1
f 61/1/1 60/1/1 59/1/1
f 62/1/1 60/1/1 61/1/1
f 63/9/1 62/9/1 61/9/1
f 64/9/1 62/9/1 63/9/1
f 68/1/1 66/1/1 65/1/1
f 69/9/1 67/9/1 66/9/1
f 69/1/1 66/1/1 68/1/1
f 70/9/1 67/9/1 69/9/1
f 73/4/1 72/4/1 71/4/1
f 74/4/1 72/4/1 73/4/1
f 75/1/2 76/1/2 78/1/2
f 76/9/2 77/9/2 79/9/2
f 78/1/2 76/1/2 79/1/2
f 79/9/2 77/9/2 80/9/2
f 81/4/2 82/4/2 83/4/2
f 83/4/2 82/4/2 84/4/2
f 85/1/2 86/1/2 87/1/2
f 87/1/2 86/1/2 88/1/2
f 87/9/2 88/9/2 89/9/2
f 89/9/2 88/9/2 90/9/2
f 95/4/2 96/4/2 97/4/2
f 97/4/2 96/4/2 98/4/2
f 91/4/2 92/4/2 99/4/2
f 99/4/2 92/4/2 100/4/2
f 93/4/2 94/4/2 101/4/2
f 100/4/2 101/4/2 102/4/2
f 99/4/2 100/4/2 102/4/2
f 98/4/2 99/4/2 102/4/2
f 101/4/2 94/4/2 103/4/2
f 102/4/2 101/4/2 103/4/2
f 104/1/2 105/1/2 106/1/2
f 106/1/2 105/1/2 107/1/2
f 106/9/2 107/9/2 109/9/2
f 109/9/2 107/9/2 110/9/2
f 109/9/2 110/9/2 112/9/2
f 110/9/2 111/9/2 112/9/2
f 108/9/2 109/9/2 112/9/2
f 112/9/2 111/9/2 113/9/2
f 112/4/2 113/4/2 114/4/2
f 114/4/2 113/4/2 115/4/2
f 115/4/2 113/4/2 116/4/2
f 116/4/2 113/4/2 117/4/2
f 117/4/2 113/4/2 118/4/2
f 118/4/2 119/4/2 122/4/2
f 122/4/2 119/4/2 123/4/2
f 120/4/2 121/4/2 124/4/2
f 124/4/2 121/4/2 125/4/2
f 125/4/2 126/4/2 127/4/2
f 127/4/2 126/4/2 128/4/2
f 129/1/2 130/1/2 134/1/2
f 130/9/2 131/9/2 135/9/2
f 134/1/2 130/1/2 135/1/2
f 131/4/2 132/4/2 136/4/2
f 135/9/2 131/9/2 136/9/2
f 132/9/2 133/9/2 137/9/2
f 136/4/2 132/4/2 137/4/2
f 137/9/2 133/9/2 138/9/2
f 138/4/2 139/4/2 140/4/2
f 137/4/2 138/4/2 140/4/2
f 136/4/2 137/4/2 140/4/2
f 140/4/2 139/4/2 141/4/2
f 140/9/2 141/9/2 143/9/2
f 141/4/2 139/4/2 144/4/2
f 143/9/2 141/9/2 144/9/2
f 142/4/2 143/4/2 145/4/2
f 143/4/2 144/4/2 145/4/2
f 144/4/2 139/4/2 146/4/2
f 145/4/2 144/4/2 146/4/2
f 146/4/2 139/4/2 147/4/2
f 147/4/2 139/4/2 148/4/2
f 151/1/3 150/1/3 149/1/3
f 152/1/3 150/1/3 151/1/3
f 155/1/3 154/1/3 153/1/3
f 156/1/3 154/1/3 155/1/3
f 159/4/3 158/4/3 157/4/3
f 160/4/3 158/4/3 159/4/3
f 163/4/3 161/4/3 160/4/3
f 164/4/3 161/4/3 163/4/3
f 165/4/3 163/4/3 162/4/3
f 166/4/3 163/4/3 165/4/3
f 173/4/3 168/4/3 167/4/3
f 174/4/3 168/4/3 173/4/3
f 175/9/3 169/9/3 168/9/3
f 175/4/3 168/4/3 174/4/3
f 176/9/3 169/9/3 175/9/3
f 178/4/3 172/4/3 171/4/3
f 178/4/3 174/4/3 173/4/3
f 178/9/3 171/9/3 170/9/3
f 178/4/3 173/4/3 172/4/3
f 179/4/3 174/4/3 178/4/3
f 180/4/3 174/4/3 179/4/3
f 181/9/3 175/9/3 174/9/3
f 181/4/3 174/4/3 180/4/3
f 182/7/3 176/7/3 175/7/3
f 182/9/3 175/9/3 181/9/3
f 183/9/3 177/9/3 176/9/3
f 183/7/3 176/7/3 182/7/3
f 186/9/3 178/9/3 170/9/3
f 186/6/3 179/6/3 178/6/3
f 187/2/3 180/2/3 179/2/3
f 187/6/3 179/6/3 186/6/3
f 188/4/3 181/4/3 180/4/3
f 188/2/3 180/2/3 187/2/3
f 189/3/3 187/3/3 186/3/3
f 189/9/3 186/9/3 170/9/3
f 190/8/3 188/8/3 187/8/3
f 190/3/3 187/3/3 189/3/3
f 191/4/3 181/4/3 188/4/3
f 191/8/3 188/8/3 190/8/3
f 192/10/3 182/10/3 181/10/3
f 192/4/3 181/4/3 191/4/3
f 193/9/3 183/9/3 182/9/3
f 193/10/3 182/10/3 192/10/3
f 194/9/3 177/9/3 183/9/3
f 194/9/3 183/9/3 193/9/3
f 195/4/3 185/4/3 184/4/3
f 196/4/3 185/4/3 195/4/3
f 197/9/3 189/9/3 170/9/3
f 198/4/3 191/4/3 190/4/3
f 198/9/3 189/9/3 197/9/3
f 198/4/3 190/4/3 189/4/3
f 198/4/3 192/4/3 191/4/3
f 199/4/3 192/4/3 198/4/3
f 200/4/3 192/4/3 199/4/3
f 201/9/3 193/9/3 192/9/3
f 201/4/3 192/4/3 200/4/3
f 202/7/3 194/7/3 193/7/3
f 202/9/3 193/9/3 201/9/3
f 203/9/3 177/9/3 194/9/3
f 203/7/3 194/7/3 202/7/3
f 204/9/3 177/9/3 203/9/3
f 205/4/3 202/4/3 201/4/3
f 205/4/3 201/4/3 200/4/3
f 206/9/3 203/9/3 202/9/3
f 206/4/3 202/4/3 205/4/3
f 207/9/3 203/9/3 206/9/3
f 213/4/3 209/4/3 208/4/3
f 214/4/3 209/4/3 213/4/3
f 216/1/3 211/1/3 210/1/3
f 217/9/3 212/9/3 211/9/3
f 217/1/3 211/1/3 216/1/3
f 218/9/3 212/9/3 217/9/3
f 219/4/3 215/4/3 214/4/3
f 220/4/3 215/4/3 219/4/3
f 226/4/3 221/4/3 220/4/3
f 227/4/3 221/4/3 226/4/3
f 228/1/3 223/1/3 222/1/3
f 229/9/3 224/9/3 223/9/3
f 229/1/3 223/1/3 228/1/3
f 230/9/3 224/9/3 229/9/3
f 232/4/3 226/4/3 225/4/3
f 233/4/3 226/4/3 232/4/3
f 234/4/3 232/4/3 231/4/3
f 235/4/3 232/4/3 234/4/3
f 238/4/3 237/4/3 236/4/3
f 239/4/3 237/4/3 238/4/3
f 240/9/4 241/9/4 245/9/4
f 245/9/4 241/9/4 246/9/4
f 242/1/4 243/1/4 247/1/4
f 243/9/4 244/9/4 248/9/4
f 247/1/4 243/1/4 248/1/4
f 248/9/4 244/9/4 249/9/4
f 250/1/4 251/1/4 253/1/4
f 251/9/4 252/9/4 254/9/4
f 253/1/4 251/1/4 254/1/4
f 254/9/4 252/9/4 255/9/4
f 256/9/4 257/9/4 258/9/4
f 258/9/4 257/9/4 259/9/4
f 260/4/4 261/4/4 264/4/4
f 264/4/4 261/4/4 265/4/4
f 265/4/4 261/4/4 266/4/4
f 266/4/4 267/4/4 268/4/4
f 265/4/4 266/4/4 268/4/4
f 268/4/4 267/4/4 269/4/4
f 262/9/4 263/9/4 272/9/4
f 263/4/4 264/4/4 273/4/4
f 272/9/4 263/9/4 273/9/4
f 273/4/4 264/4/4 274/4/4
f 270/4/4 271/4/4 275/4/4
f 275/4/4 271/4/4 276/4/4
f 276/4/4 271/4/4 277/4/4
f 275/4/4 276/4/4 278/4/4
f 274/4/4 275/4/4 278/4/4
f 278/4/4 276/4/4 279/4/4
f 280/4/4 281/4/4 282/4/4
f 280/4/4 282/4/4 284/4/4
f 282/4/4 283/4/4 284/4/4
f 284/4/4 283/4/4 285/4/4
f 280/4/4 284/4/4 286/4/4
f 286/4/4 284/4/4 287/4/4
f 288/4/4 289/4/4 290/4/4
f 290/4/4 289/4/4 291/4/4
f 296/1/5 293/1/5 292/1/5
f 297/1/5 293/1/5 296/1/5
f 298/1/5 295/1/5 294/1/5
f 299/1/5 295/1/5 298/1/5
f 302/9/5 301/9/5 300/9/5
f 303/9/5 301/9/5 302/9/5
f 304/9/5 301/9/5 303/9/5
f 305/9/5 301/9/5 304/9/5
f 307/9/5 304/9/5 303/9/5
f 308/9/5 304/9/5 307/9/5
f 310/9/5 307/9/5 306/9/5
f 310/9/5 309/9/5 308/9/5
f 310/9/5 308/9/5 307/9/5
f 311/9/5 309/9/5 310/9/5
f 316/1/5 313/1/5 312/1/5
f 317/1/5 313/1/5 316/1/5
f 318/1/5 315/1/5 314/1/5
f 319/1/5 315/1/5 318/1/5
f 320/9/5 317/9/5 316/9/5
f 321/9/5 317/9/5 320/9/5
f 322/9/5 319/9/5 318/9/5
f 323/9/5 319/9/5 322/9/5
f 324/4/5 321/4/5 320/4/5
f 325/4/5 321/4/5 324/4/5
f 326/4/5 323/4/5 322/4/5
f 327/4/5 323/4/5 326/4/5
f 328/9/5 325/9/5 324/9/5
f 329/9/5 325/9/5 328/9/5
f 330/9/5 327/9/5 326/9/5
f 331/9/5 327/9/5 330/9/5
f 336/4/5 333/4/5 332/4/5
f 337/4/5 333/4/5 336/4/5
f 338/4/5 335/4/5 334/4/5
f 339/4/5 335/4/5 338/4/5
f 340/4/5 338/4/5 337/4/5
f 341/4/5 338/4/5 340/4/5
f 346/4/5 343/4/5 342/4/5
f 347/4/5 343/4/5 346/4/5
f 348/4/5 345/4/5 344/4/5
f 349/4/5 345/4/5 348/4/5
f 352/4/5 351/4/5 350/4/5
f 353/4/5 351/4/5 352/4/5
f 356/4/5 355/4/5 354/4/5
f 357/4/5 355/4/5 356/4/5
f 360/4/5 359/4/5 358/4/5
f 361/4/5 359/4/5 360/4/5
f 362/1/6 363/1/6 366/1/6
f 366/1/6 363/1/6 367/1/6
f 364/1/6 365/1/6 368/1/6
f 368/1/6 365/1/6 369/1/6
f 366/9/6 367/9/6 370/9/6
f 370/9/6 367/9/6 371/9/6
f 368/9/6 369/9/6 372/9/6
f 372/9/6 369/9/6 373/9/6
f 374/4/6 375/4/6 378/4/6
f 378/4/6 375/4/6 379/4/6
f 376/4/6 377/4/6 380/4/6
f 380/4/6 377/4/6 381/4/6
f 382/4/6 383/4/6 386/4/6
f 386/4/6 383/4/6 387/4/6
f 384/4/6 385/4/6 388/4/6
f 388/4/6 385/4/6 389/4/6
f 390/4/6 391/4/6 392/4/6
f 392/4/6 391/4/6 393/4/6
f 390/4/6 392/4/6 395/4/6
f 395/4/6 392/4/6 396/4/6
f 393/4/6 391/4/6 397/4/6
f 397/4/6 391/4/6 398/4/6
f 394/4/6 395/4/6 400/4/6
f 400/4/6 395/4/6 401/4/6
f 398/4/6 399/4/6 402/4/6
f 402/4/6 399/4/6 403/4/6
f 404/4/6 405/4/6 407/4/6
f 407/4/6 405/4/6 408/4/6
f 406/4/6 407/4/6 410/4/6
f 410/4/6 407/4/6 411/4/6
f 408/4/6 409/4/6 412/4/6
f 412/4/6 409/4/6 413/4/6
f 414/4/6 415/4/6 416/4/6
f 416/4/6 415/4/6 417/4/6
